<svg xmlns="http://www.w3.org/2000/svg" xmlns:xlink="http://www.w3.org/1999/xlink" width="60" height="60" viewBox="0 0 60 60" fill="none">
<rect  x="0" y="0" width="60" height="60" rx="8"    fill="#E0E0E0" >
</rect>
<path d="M41.5792 14.2659C41.1708 14.0886 40.7333 14 40.2958 14L19.7042 14C19.2375 14 18.8 14.0886 18.3917 14.2364C16.9917 14.7977 16 16.1273 16 17.7227L16 36.3068C16 37.9023 16.9917 39.2318 18.4208 39.7636C18.8292 39.9114 19.2667 40 19.7333 40L40.2958 40C42.3375 40 44 38.3159 44 36.2477L44 17.7227C44 16.1273 43.0083 14.7977 41.5792 14.2659ZM27.2 22.3613C27.2 23.8977 25.9458 25.1387 24.4 25.1387C22.8542 25.1387 21.6 23.8977 21.6 22.3613C21.6 20.825 22.8542 19.5841 24.4 19.5841C25.9458 19.5841 27.2 20.825 27.2 22.3613ZM40.2958 38.1091L19.7042 38.1091C18.8292 38.1091 18.0708 37.4886 17.8958 36.6318C17.8667 36.5136 17.8667 36.3955 17.8667 36.2773L17.8667 34.8591L23.3792 30.1318L25.3625 32.0523C26.3833 33.0568 28.0167 33.1159 29.125 32.2L38.4292 24.4C40.2083 26.35 41.4333 27.65 42.1917 28.3296L42.1917 36.2477C42.1333 37.2818 41.3167 38.1091 40.2958 38.1091Z"   fill="#A6A6A6" >
</path>
<g >
<path     fill="#808080"  d="M17.8025 44.5395L17.8025 45.8145C17.8025 46.5115 17.7345 47.4295 17.1905 48.118C17.3265 48.1775 17.573 48.339 17.6835 48.441C18.134 47.88 18.2955 47.0895 18.3465 46.401L19.494 46.401L19.494 48.424L20.089 48.424L20.089 46.401L21.0835 46.401L21.0835 45.8825L18.372 45.8825L18.372 45.823L18.372 44.973C19.239 44.905 20.191 44.769 20.854 44.565L20.497 44.089C19.8595 44.3015 18.746 44.463 17.8025 44.5395ZM15.091 50.277L19.4175 50.277L19.4175 50.9825L15.091 50.9825L15.091 50.277ZM15.091 49.8095L15.091 49.1125L19.4175 49.1125L19.4175 49.8095L15.091 49.8095ZM14.4875 48.611L14.4875 51.79L15.091 51.79L15.091 51.4925L19.4175 51.4925L19.4175 51.773L20.0465 51.773L20.0465 48.611L14.4875 48.611ZM13.4675 47.353L13.5185 47.8885L15.4735 47.676L15.4735 48.441L16.0685 48.441L16.0685 47.608L17.369 47.4635L17.3605 46.979L16.0685 47.1065L16.0685 46.469L17.4115 46.469L17.4115 45.9505L16.0685 45.9505L16.0685 45.398L15.4735 45.398L15.4735 45.9505L14.377 45.9505C14.6065 45.6785 14.8445 45.3725 15.0655 45.041L17.3945 45.041L17.3945 44.5395L15.3885 44.5395L15.6265 44.123L14.989 43.9445C14.904 44.1485 14.802 44.344 14.7 44.5395L13.4505 44.5395L13.4505 45.041L14.4025 45.041C14.224 45.3215 14.0625 45.5425 13.986 45.636C13.833 45.84 13.6885 45.976 13.5525 46.0015C13.629 46.1715 13.7225 46.4605 13.7565 46.588C13.833 46.52 14.088 46.469 14.445 46.469L15.4735 46.469L15.4735 47.166L13.4675 47.353ZM22.469 44.5395L22.469 45.1685L25.291 45.1685C25.2655 45.772 25.24 46.418 25.138 47.0555L21.942 47.0555L21.942 47.676L25.019 47.676C24.6705 49.138 23.846 50.5065 21.8315 51.2715C21.993 51.399 22.18 51.6285 22.265 51.79C24.458 50.9145 25.308 49.342 25.665 47.676L25.8435 47.676L25.8435 50.6C25.8435 51.3735 26.0815 51.5945 26.9655 51.5945C27.144 51.5945 28.3595 51.5945 28.555 51.5945C29.371 51.5945 29.575 51.2375 29.66 49.8775C29.473 49.835 29.1925 49.7245 29.0395 49.6055C28.997 50.77 28.929 50.9655 28.5125 50.9655C28.249 50.9655 27.229 50.9655 27.025 50.9655C26.5915 50.9655 26.5065 50.906 26.5065 50.6L26.5065 47.676L29.5835 47.676L29.5835 47.0555L25.7755 47.0555C25.869 46.418 25.9115 45.7805 25.9285 45.1685L29.099 45.1685L29.099 44.5395L22.469 44.5395ZM34.709 44.3525L34.709 44.9645L37.293 44.9645L37.293 47.03L34.7345 47.03L34.7345 50.719C34.7345 51.501 34.9725 51.705 35.763 51.705C35.9245 51.705 37.0125 51.705 37.191 51.705C37.9645 51.705 38.1515 51.314 38.228 49.9285C38.0495 49.886 37.786 49.767 37.633 49.6565C37.5905 50.8805 37.531 51.1015 37.1485 51.1015C36.9105 51.1015 36.0095 51.1015 35.831 51.1015C35.44 51.1015 35.3635 51.042 35.3635 50.719L35.3635 47.642L37.293 47.642L37.293 48.22L37.905 48.22L37.905 44.3525L34.709 44.3525ZM31.2155 49.767L33.57 49.767L33.57 50.651L31.2155 50.651L31.2155 49.767ZM31.2155 49.291L31.2155 46.4095L31.7935 46.4095L31.7935 47.081C31.7935 47.54 31.7085 48.0925 31.2155 48.526C31.3005 48.577 31.4365 48.7045 31.496 48.781C32.0315 48.288 32.1505 47.608 32.1505 47.0895L32.1505 46.4095L32.6265 46.4095L32.6265 48.016C32.6265 48.424 32.7285 48.5005 33.0685 48.5005C33.128 48.5005 33.417 48.5005 33.485 48.5005L33.57 48.5005L33.57 49.291L31.2155 49.291ZM30.4845 44.3015L30.4845 44.871L31.7085 44.871L31.7085 45.857L30.697 45.857L30.697 51.756L31.2155 51.756L31.2155 51.1695L33.57 51.1695L33.57 51.637L34.097 51.637L34.097 45.857L33.1365 45.857L33.1365 44.871L34.2925 44.871L34.2925 44.3015L30.4845 44.3015ZM32.1675 45.857L32.1675 44.871L32.669 44.871L32.669 45.857L32.1675 45.857ZM32.992 46.4095L33.57 46.4095L33.57 48.1265L33.5445 48.1095C33.5275 48.1265 33.5105 48.135 33.417 48.135C33.3575 48.135 33.145 48.135 33.1025 48.135C33.0005 48.135 32.992 48.118 32.992 48.0075L32.992 46.4095ZM41.6875 48.7385C42.3675 48.883 43.2345 49.1805 43.7105 49.4185L43.974 48.985C43.498 48.764 42.6395 48.4835 41.9595 48.3475L41.6875 48.7385ZM40.8375 49.818C42.0105 49.9625 43.481 50.3025 44.297 50.5915L44.5775 50.1155C43.753 49.8435 42.2825 49.512 41.135 49.3845L40.8375 49.818ZM39.214 44.344L39.214 51.79L39.826 51.79L39.826 51.433L45.657 51.433L45.657 51.79L46.2945 51.79L46.2945 44.344L39.214 44.344ZM39.826 50.8635L39.826 44.922L45.657 44.922L45.657 50.8635L39.826 50.8635ZM42.019 45.092C41.594 45.789 40.863 46.452 40.132 46.8855C40.268 46.9705 40.489 47.166 40.5825 47.268C40.8375 47.098 41.101 46.894 41.3645 46.6645C41.6195 46.9365 41.934 47.1915 42.274 47.421C41.5515 47.761 40.7355 48.016 39.979 48.169C40.0895 48.288 40.2255 48.5345 40.285 48.6875C41.118 48.492 42.0105 48.1775 42.818 47.744C43.5235 48.1265 44.331 48.4155 45.1385 48.594C45.215 48.441 45.3765 48.22 45.4955 48.1095C44.7475 47.9735 43.9995 47.744 43.3365 47.438C43.974 47.0215 44.5095 46.537 44.8665 45.959L44.501 45.7465L44.4075 45.772L42.206 45.772C42.3335 45.6105 42.4525 45.449 42.5545 45.279L42.019 45.092ZM41.713 46.3245L41.7725 46.265L43.974 46.265C43.668 46.5965 43.26 46.894 42.801 47.1575C42.3675 46.911 41.9935 46.6305 41.713 46.3245Z">
</path>
</g>
</svg>
