<svg xmlns="http://www.w3.org/2000/svg" xmlns:xlink="http://www.w3.org/1999/xlink" width="111.00038146972656" height="40" viewBox="0 0 111.00038146972656 40" fill="none">
<path d="M51.1107 9.36395L50.73 11.255L53.9243 11.255C53.8581 13.1516 53.7174 14.7525 53.5023 16.0578C53.2871 17.3631 52.9313 18.635 52.4347 19.8733L53.9905 20.9444L53.9905 23.6554L51.4748 21.8982C51.0997 22.6123 50.5921 23.4545 49.9521 24.4251L47.0557 24.4251C48.1481 23.0195 49.0087 21.742 49.6377 20.5929L47.0888 18.8023L48.1812 13.4305L47.0392 13.4305L47.0392 11.255L48.6281 11.255L49.0087 9.36395L51.1107 9.36395ZM50.5811 18.568C51.1438 17.0619 51.5079 15.3494 51.6734 13.4305L50.2997 13.4305L49.4391 17.7982L50.5811 18.568ZM55.1325 10.2342L61.4384 10.2342L61.4384 23.488L55.1325 23.488L55.1325 10.2342ZM59.3364 21.3293L59.3364 12.3929L57.2345 12.3929L57.2345 21.3293L59.3364 21.3293Z"   fill="#313131" >
</path>
<path d="M77.0983 14.468L77.0983 19.9235L64.5858 19.9235L64.5858 14.468L77.0983 14.468ZM63.3942 22.166C64.2107 21.7308 64.6852 21.1005 64.8176 20.2749L66.6879 20.2749C66.5775 22.272 65.4796 23.6554 63.3942 24.4251L63.3942 22.166ZM63.4439 12.2256L66.7374 12.2256L66.4064 11.4725L64.2217 11.4725L64.2217 9.74883L69.7497 9.74883L69.7497 9.02924L71.9345 9.02924L71.9345 9.74883L77.4625 9.74883L77.4625 11.4725L75.2777 11.4725L74.9467 12.2256L78.2403 12.2256L78.2403 13.9492L63.4439 13.9492L63.4439 12.2256ZM74.9467 18.4341L74.9467 17.8149L66.7374 17.8149L66.7374 18.4341L74.9467 18.4341ZM74.9467 16.5431L74.9467 15.9239L66.7374 15.9239L66.7374 16.5431L74.9467 16.5431ZM67.1182 20.2749L69.1705 20.2749L69.1705 22.7015L73.0433 22.7015L73.0433 21.3795L75.013 21.3795L75.013 24.4251L67.1182 24.4251L67.1182 20.2749ZM69.038 12.2256L72.6462 12.2256L72.9772 11.4725L68.707 11.4725L69.038 12.2256ZM72.2158 20.2749L72.6627 22.1492L70.5441 22.1492L70.0973 20.2749L72.2158 20.2749ZM76.8666 20.2749C76.9991 21.1005 77.4734 21.7308 78.29 22.166L78.29 24.4251C76.2045 23.6554 75.1068 22.272 74.9964 20.2749L76.8666 20.2749Z"   fill="#313131" >
</path>
<path d="M93.983 24.5925C92.7473 24.1016 91.4812 23.714 90.1846 23.4294C88.8882 23.145 87.6165 22.9637 86.3697 22.8856L86.3697 20.7937C87.8041 20.9388 89.095 21.1284 90.2426 21.3628L91.3515 18.9362L86.2538 18.9362L86.2538 16.8778L94.5458 16.8778L92.2784 21.8648C92.8301 22.021 93.3982 22.2162 93.983 22.4505L93.983 24.5925ZM79.6665 21.5301L81.6031 21.2288L81.6031 17.2293L79.981 17.2293L79.981 15.1207L81.6031 15.1207L81.6031 11.8909L79.7494 11.8909L79.7494 9.74885L85.4924 9.74885L85.4924 11.8909L83.7215 11.8909L83.7215 15.1207L85.3601 15.1207L85.3601 17.2293L83.7215 17.2293L83.7215 20.9109L85.7242 20.6097L85.7242 22.7517L79.6665 23.6721L79.6665 21.5301ZM85.9063 12.9954C87.1641 12.0471 88.0302 10.8366 88.5047 9.36395L92.2121 9.36395C92.6866 10.8366 93.5528 12.0471 94.8106 12.9954L94.8106 15.5056C93.6079 14.8027 92.6369 13.9548 91.8977 12.9619C91.5556 12.5045 91.2411 11.9913 90.9542 11.4223L89.7626 11.4223C89.4757 11.9913 89.1613 12.5045 88.8192 12.9619C88.0799 13.9548 87.1089 14.8027 85.9063 15.5056L85.9063 12.9954ZM91.2191 13.2129L91.7156 16.0411L89.6633 16.0411L89.1667 13.2129L91.2191 13.2129Z"   fill="#313131" >
</path>
<path d="M100.706 24.425C101.004 23.8338 101.246 23.2983 101.434 22.8186L96.0219 23.672L96.0219 21.53L97.8259 21.2455L97.8259 17.2292L96.3363 17.2292L96.3363 15.1206L97.8259 15.1206L97.8259 11.8908L96.1045 11.8908L96.1045 9.74878L101.583 9.74878L101.583 11.7904L103.106 11.7904L103.106 9.19653L105.224 9.19653L105.224 11.7904L110.835 11.7904L110.835 13.9157L108.832 13.9157L108.832 16.7104L110.918 15.6561L110.918 17.8484L108.832 18.9194L108.832 22.0822L111 22.0822L111 24.2912L106.714 24.2912L106.714 20.4088L104.893 21.3292L104.893 19.1369L106.714 18.2165L106.714 13.9157L105.208 13.9157C105.141 15.8792 104.954 17.7312 104.645 19.4716C104.336 21.212 103.85 22.8631 103.188 24.425L100.706 24.425ZM101.815 20.6096L101.815 21.781C102.234 20.565 102.54 19.3182 102.733 18.0408C102.926 16.7634 103.045 15.3884 103.089 13.9157L101.533 13.9157L101.533 11.8908L99.9444 11.8908L99.9444 15.1206L101.45 15.1206L101.45 17.2292L99.9444 17.2292L99.9444 20.9108L101.815 20.6096ZM109.279 9.31368L109.726 11.4222L107.674 11.4222L107.227 9.31368L109.279 9.31368Z"   fill="#313131" >
</path>
<path d="M56.9509 33.2383L59.8784 33.2383L59.8784 32.4209L57.9159 32.4209L57.9159 28.3533L56.9509 28.3533L56.9509 33.2383Z"   fill="#313131" >
</path>
<path d="M63.7288 33.2383L64.6938 33.2383L64.6938 28.3533L63.7288 28.3533L63.7288 33.2383Z"   fill="#313131" >
</path>
<path d="M68.8894 33.2383L69.8022 33.2383L69.8022 31.2804C69.8022 30.72 69.7305 30.1069 69.6848 29.5795L69.7175 29.5795L70.2064 30.6277L71.6017 33.2383L72.5797 33.2383L72.5797 28.3533L71.6669 28.3533L71.6669 30.3047C71.6669 30.8585 71.7452 31.5045 71.7908 32.0121L71.7582 32.0121L71.2757 30.9573L69.874 28.3533L68.8894 28.3533L68.8894 33.2383Z"   fill="#313131" >
</path>
<path d="M77.5973 33.2383L78.5622 33.2383L78.5622 31.4518L80.0162 28.3533L79.0121 28.3533L78.5295 29.5466C78.3927 29.9091 78.2492 30.252 78.0993 30.6277L78.0732 30.6277C77.9232 30.252 77.7929 29.9091 77.6559 29.5466L77.1735 28.3533L76.1498 28.3533L77.5973 31.4518L77.5973 33.2383Z"   fill="#313131" >
</path>
<path d="M84.5056 30.6936C84.6489 30.186 84.7924 29.6323 84.9162 29.0983L84.9489 29.0983C85.0858 29.6257 85.2162 30.186 85.3661 30.6936L85.5096 31.2276L84.3621 31.2276L84.5056 30.6936ZM82.8364 33.2383L83.8144 33.2383L84.1535 31.9858L85.7182 31.9858L86.0573 33.2383L87.068 33.2383L85.5162 28.3533L84.3816 28.3533L82.8364 33.2383Z"   fill="#313131" >
</path>
<path d="M90.6443 33.2383L91.6094 33.2383L91.6094 31.5045L92.2548 31.5045C93.2915 31.5045 94.1195 31.0035 94.1195 29.8894C94.1195 28.7357 93.298 28.3533 92.2288 28.3533L90.6443 28.3533L90.6443 33.2383ZM91.6094 30.7332L91.6094 29.1312L92.157 29.1312C92.8221 29.1312 93.1742 29.3224 93.1742 29.8894C93.1742 30.4497 92.8546 30.7332 92.1897 30.7332L91.6094 30.7332Z"   fill="#313131" >
</path>
<path d="M99.3648 33.3305C100.48 33.3305 101.138 32.6515 101.138 31.8538C101.138 31.1484 100.754 30.7727 100.167 30.5287L99.5342 30.2584C99.1235 30.0936 98.7845 29.9684 98.7845 29.619C98.7845 29.2959 99.0518 29.1048 99.4756 29.1048C99.8733 29.1048 100.193 29.2498 100.499 29.5069L100.988 28.8938C100.597 28.4917 100.036 28.2675 99.4756 28.2675C98.4976 28.2675 97.8064 28.8806 97.8064 29.6783C97.8064 30.3903 98.2955 30.7858 98.7845 30.9902L99.43 31.2671C99.8602 31.4517 100.154 31.5637 100.154 31.9263C100.154 32.2691 99.8863 32.4867 99.3843 32.4867C98.9605 32.4867 98.5041 32.2691 98.1585 31.9461L97.6044 32.6185C98.0737 33.0734 98.7192 33.3305 99.3648 33.3305Z"   fill="#313131" >
</path>
<path d="M34.4007 10.9048L25.8005 14.7825L25.8005 25.2173L17.2004 29.2582L17.2004 39.9999L34.4007 32.1738L34.4007 10.9048Z" fill-rule="evenodd"  fill="#7EAAFC" >
</path>
<path d="M25.8005 25.2173L17.2004 21.3043L17.2004 10.9048L25.8005 14.7825L25.8005 25.2173Z" fill-rule="evenodd"  fill="#025BFF" >
</path>
<path d="M34.4007 10.9048L25.8005 6.52167L17.2004 10.9048L25.8005 14.7825L34.4007 10.9048Z" fill-rule="evenodd"  fill="#E0EBFF" >
</path>
<path d="M17.2 40L8.59991 35.6521L8.59991 25.2173L17.2 29.2582L17.2 40Z" fill-rule="evenodd"  fill="#025BFF" >
</path>
<path d="M8.59991 25.2174L17.2 21.3044L25.8002 25.2174L17.2 29.2583L8.59991 25.2174Z" fill-rule="evenodd"  fill="#E0EBFF" >
</path>
<path d="M1.22215e-13 8.26093L8.60012 12.174L8.60012 33.4782L0 29.1304L1.22215e-13 8.26093Z" fill-rule="evenodd"  fill="#025BFF" >
</path>
<path d="M8.60011 12.1739L25.8004 3.91305L17.2003 0L0 8.26086L8.60011 12.1739Z" fill-rule="evenodd"  fill="#E0EBFF" >
</path>
<path d="M8.59991 12.1738L8.59991 33.4782L17.2 29.2582L17.2 18.6956L25.8002 14.7825L25.8002 3.91296L8.59991 12.1738Z" fill-rule="evenodd"  fill="#7EAAFC" >
</path>
</svg>
