<svg xmlns="http://www.w3.org/2000/svg" xmlns:xlink="http://www.w3.org/1999/xlink" width="22.169876098632812" height="22.169921875" viewBox="0 0 22.169876098632812 22.169921875" fill="none">
<g filter="url(#filter_17_24)">
<path d="M16.461 11.3686L9.81003 11.3686C9.25579 11.3686 8.81239 10.9252 8.81239 10.371C8.81239 9.81671 9.25579 9.37331 9.81003 9.37331L16.461 9.37331C17.0152 9.37331 17.4586 9.81671 17.4586 10.371C17.4586 10.9252 17.0152 11.3686 16.461 11.3686ZM5.09893 14.3061C5.09893 14.9158 5.54233 15.3592 6.152 15.3592C6.76167 15.3592 7.20507 14.8604 7.20507 14.3061C7.20507 13.7519 6.76167 13.253 6.152 13.253C5.54233 13.253 5.09893 13.6964 5.09893 14.3061ZM5.09893 10.371C5.09893 10.9806 5.54233 11.424 6.152 11.424C6.76167 11.424 7.20507 10.9252 7.20507 10.371C7.20507 9.81671 6.76167 9.31789 6.152 9.31789C5.54233 9.31789 5.09893 9.81671 5.09893 10.371ZM16.461 15.3037L9.81003 15.3037C9.25579 15.3037 8.81239 14.8604 8.81239 14.3061C8.81239 13.7519 9.25579 13.3085 9.81003 13.3085L16.461 13.3085C17.0152 13.3085 17.4586 13.7519 17.4586 14.3061C17.4586 14.8604 17.0152 15.3037 16.461 15.3037ZM21.0058 18.5184L21.0058 6.04783C21.0058 4.55137 19.6202 4.66222 19.6202 4.66222L11.8053 4.66222C11.3619 4.66222 11.0848 4.44052 11.0848 4.44052C11.0848 4.44052 10.7523 3.88627 10.1426 2.99948C9.58834 2.00183 8.86782 2.16811 8.86782 2.16811L2.82652 2.16811C1.10835 2.16811 1.10835 3.77542 1.10835 3.77542L1.10835 18.4075C1.10835 20.2365 2.49397 20.0148 2.49397 20.0148L19.7865 20.0148C21.2275 20.0148 21.0058 18.5184 21.0058 18.5184Z"   fill="url(#linear_fill_17_24)" >
</path>
</g>
<defs>
<linearGradient id="linear_fill_17_24" x1="2.3678436279296875" y1="3.910888671875" x2="18.876815795898438" y2="17.07373046875" gradientUnits="userSpaceOnUse">
<stop offset="0" stop-color="#1890FF"  />
<stop offset="1" stop-color="#0048FF"  />
</linearGradient>
<filter id="filter_17_24" x="1.1083526611328125" y="2.15771484375" width="19.909744262695312" height="17.86572265625" filterUnits="userSpaceOnUse" color-interpolation-filters="sRGB">
<feFlood flood-opacity="0" result="feFloodId_17_24"/>
<feBlend mode="normal" in="SourceGraphic" in2="feFloodId_17_24" result="shape_17_24"/>
<feColorMatrix in="SourceAlpha" type="matrix" values="0 0 0 0 0 0 0 0 0 0 0 0 0 0 0 0 0 0 127 0" result="hardAlpha_17_24"/>
<feOffset dx="0.5834176839564014" dy="1.1668353679128027"/>
<feGaussianBlur stdDeviation="2.3336707358256055"/>
<feComposite in2="hardAlpha_17_24" operator="arithmetic" k2="-1" k3="1"/>
<feColorMatrix type="matrix" values="0 0 0 0 1 0 0 0 0 1 0 0 0 0 1 0 0 0 0.56 0"/>
<feBlend mode="normal" in2="shape_17_24" result="innerShadow_0_17_24" />
</filter>
</defs>
</svg>
